<svg xmlns="http://www.w3.org/2000/svg" width="272" height="240" viewBox="0 0 272 240"><rect width="100%" height="100%" fill="#DDDDDD"/><path fill="#999999" d="M58.27 128.565h4.36q1.2 0 2.01-.29.82-.29 1.31-.77.48-.48.7-1.12t.22-1.36q0-.75-.24-1.35t-.76-1.02q-.51-.43-1.32-.65-.8-.22-1.94-.22h-4.34zm3.67-16.45h-3.67v6.69h3.43q2.21 0 3.33-.8 1.13-.8 1.13-2.54 0-1.81-1.02-2.58-1.03-.77-3.2-.77m-7.97-3.33h7.97q2.27 0 3.89.44 1.61.43 2.64 1.23 1.04.8 1.52 1.93.48 1.14.48 2.56 0 .82-.24 1.56-.24.75-.75 1.4-.5.64-1.28 1.17-.77.53-1.85.9 4.77 1.07 4.77 5.15 0 1.47-.56 2.72t-1.63 2.15q-1.07.91-2.64 1.42t-3.58.51h-8.74zm29.12 18.9v-2.77q-1.71.08-2.88.3-1.17.21-1.87.55-.71.34-1.01.78-.3.45-.3.98 0 1.04.61 1.49.62.45 1.61.45 1.22 0 2.1-.44.89-.44 1.74-1.34m-8.35-8.62-.71-1.27q2.84-2.59 6.82-2.59 1.44 0 2.58.47 1.13.47 1.92 1.31.78.84 1.19 2.01t.41 2.56v10.37h-1.8q-.56 0-.86-.17t-.48-.68l-.35-1.18q-.63.56-1.22.98-.59.43-1.23.71-.64.29-1.37.44-.73.16-1.61.16-1.04 0-1.92-.28t-1.52-.84-.99-1.4q-.35-.83-.35-1.93 0-.63.21-1.24.21-.62.68-1.18t1.22-1.05q.75-.5 1.85-.87t2.55-.6q1.46-.23 3.33-.28v-.96q0-1.65-.7-2.44-.71-.79-2.04-.79-.96 0-1.59.22-.63.23-1.11.51t-.87.5q-.39.23-.87.23-.42 0-.71-.22t-.46-.5m34.67-3.56h3.95v16.42h-22.7v-16.42h3.95v13.49h5.42v-13.49h3.96v13.49h5.42zm10.98 6.32h7.45q0-.76-.21-1.44-.22-.68-.65-1.2-.43-.51-1.1-.8-.66-.3-1.54-.3-1.71 0-2.7.98-.98.97-1.25 2.76m10.08 2.39h-10.16q.09 1.26.44 2.18.36.92.93 1.52.58.6 1.37.9.79.29 1.75.29t1.66-.22q.69-.22 1.21-.5.52-.27.92-.49.39-.23.76-.23.49 0 .73.37l1.14 1.44q-.66.77-1.47 1.29-.82.52-1.71.83t-1.81.44-1.78.13q-1.71 0-3.18-.57-1.48-.57-2.56-1.68-1.09-1.11-1.72-2.75-.62-1.64-.62-3.8 0-1.68.54-3.16.55-1.48 1.56-2.58 1.02-1.09 2.48-1.73 1.47-.64 3.31-.64 1.55 0 2.86.49 1.31.5 2.26 1.45.94.95 1.48 2.34.53 1.38.53 3.16 0 .89-.19 1.21-.19.31-.73.31m24.62-10.39v12.02q1.23-.03 2.26-.51 1.02-.48 1.76-1.29.73-.81 1.14-1.89t.41-2.33q0-1.21-.41-2.29t-1.14-1.9q-.74-.81-1.76-1.29-1.03-.48-2.26-.52m-4.08 12.02v-12.02q-1.25.04-2.26.52-1.02.48-1.76 1.29-.73.82-1.13 1.9t-.4 2.29q0 1.25.4 2.33t1.13 1.89q.74.81 1.76 1.29 1.01.48 2.26.51m4.08-18.03v2.7q2.16.07 3.97.82t3.11 2.01q1.3 1.27 2.04 2.93.74 1.67.74 3.55 0 1.91-.74 3.58t-2.04 2.94q-1.3 1.26-3.11 2.01t-3.97.82v2.75h-4.08v-2.75q-2.14-.07-3.95-.83t-3.12-2.01q-1.31-1.26-2.05-2.93t-.74-3.58q0-1.88.74-3.55.74-1.66 2.05-2.92 1.31-1.25 3.12-2.01 1.81-.75 3.95-.83v-2.7zm20.05 7.44q1.82 0 3.32.59 1.49.59 2.56 1.68 1.06 1.09 1.64 2.66.57 1.56.57 3.5 0 1.95-.57 3.52-.58 1.57-1.64 2.67-1.07 1.11-2.56 1.7-1.5.59-3.32.59-1.84 0-3.35-.59-1.5-.59-2.56-1.7-1.07-1.1-1.65-2.67-.59-1.57-.59-3.52 0-1.94.59-3.5.58-1.57 1.65-2.66 1.06-1.09 2.56-1.68 1.51-.59 3.35-.59m0 13.87q2.05 0 3.03-1.38.98-1.37.98-4.03 0-2.65-.98-4.05-.98-1.39-3.03-1.39-2.08 0-3.08 1.4t-1 4.04 1 4.03q1 1.38 3.08 1.38m25.2-13.62v2.93h-5.86v13.49h-3.95v-13.49h-5.84v-2.93zm9.6-.25q1.82 0 3.32.59 1.49.59 2.56 1.68 1.06 1.09 1.64 2.66.57 1.56.57 3.5 0 1.95-.57 3.52-.58 1.57-1.64 2.67-1.07 1.11-2.56 1.7-1.5.59-3.32.59-1.84 0-3.35-.59-1.5-.59-2.56-1.7-1.07-1.1-1.65-2.67-.59-1.57-.59-3.52 0-1.94.59-3.5.58-1.57 1.65-2.66 1.06-1.09 2.56-1.68 1.51-.59 3.35-.59m0 13.87q2.05 0 3.03-1.38.98-1.37.98-4.03 0-2.65-.98-4.05-.98-1.39-3.03-1.39-2.08 0-3.08 1.4t-1 4.04 1 4.03q1 1.38 3.08 1.38"/></svg>