<svg xmlns="http://www.w3.org/2000/svg" width="272" height="240" viewBox="0 0 272 240"><rect width="100%" height="100%" fill="#DDDDDD"/><path fill="#999999" d="m75.88 108.62-8.43 14.18v8.96h-4.29v-8.96l-8.43-14.18h3.79q.56 0 .89.28.33.27.55.68l4.22 7.73q.37.69.65 1.3t.51 1.21q.2-.6.48-1.21.27-.61.62-1.3l4.21-7.73q.17-.35.53-.65.35-.31.89-.31zm9.01 6.47q1.82 0 3.32.59 1.49.59 2.56 1.68 1.06 1.09 1.64 2.66.57 1.56.57 3.5 0 1.95-.57 3.52-.58 1.57-1.64 2.67-1.07 1.11-2.56 1.7-1.5.59-3.32.59-1.84 0-3.35-.59-1.5-.59-2.56-1.7-1.07-1.1-1.65-2.67-.59-1.57-.59-3.52 0-1.94.59-3.5.58-1.57 1.65-2.66 1.06-1.09 2.56-1.68 1.51-.59 3.35-.59m0 13.87q2.05 0 3.03-1.38.98-1.37.98-4.03 0-2.65-.98-4.05-.98-1.39-3.03-1.39-2.08 0-3.08 1.4t-1 4.04 1 4.03q1 1.38 3.08 1.38m21.31-13.62h3.95v16.42h-2.41q-.79 0-1-.72l-.27-1.31q-1.01 1.02-2.22 1.65-1.22.64-2.87.64-1.34 0-2.37-.46t-1.74-1.29q-.7-.83-1.06-1.97-.36-1.15-.36-2.52v-10.44h3.95v10.44q0 1.5.7 2.32.69.83 2.08.83 1.03 0 1.92-.46.9-.45 1.7-1.25zm11.34 1 .24 1.85q.77-1.47 1.83-2.31 1.05-.84 2.49-.84 1.14 0 1.83.5l-.26 2.96q-.08.28-.23.4t-.41.12q-.24 0-.71-.08t-.92-.08q-.66 0-1.17.2-.51.19-.92.55t-.72.87-.58 1.17v10.11h-3.95v-16.42h2.32q.6 0 .84.22t.32.78m21.16 3.92h3.21q1.19 0 2.07-.3t1.46-.85.87-1.34.29-1.77q0-.93-.29-1.68t-.86-1.28q-.58-.53-1.46-.81t-2.08-.28h-3.21zm-4.31-11.64h7.52q2.32 0 4.02.55 1.69.54 2.8 1.52 1.1.97 1.64 2.33.53 1.36.53 2.98 0 1.68-.56 3.08t-1.68 2.41-2.8 1.57q-1.69.56-3.95.56h-3.21v8.14h-4.31zm23.14-.64v9.12q.96-.89 2.11-1.45t2.7-.56q1.35 0 2.39.45 1.04.46 1.73 1.28.7.83 1.06 1.97.36 1.15.36 2.52v10.45h-3.95v-10.45q0-1.5-.69-2.33-.69-.82-2.1-.82-1.02 0-1.92.46-.89.47-1.69 1.27v11.87h-3.95v-23.78zm21.36 7.11q1.82 0 3.32.59 1.49.59 2.56 1.68 1.06 1.09 1.64 2.66.57 1.56.57 3.5 0 1.95-.57 3.52-.58 1.57-1.64 2.67-1.07 1.11-2.56 1.7-1.5.59-3.32.59-1.84 0-3.35-.59-1.5-.59-2.56-1.7-1.07-1.1-1.65-2.67-.59-1.57-.59-3.52 0-1.94.59-3.5.58-1.57 1.65-2.66 1.06-1.09 2.56-1.68 1.51-.59 3.35-.59m0 13.87q2.05 0 3.03-1.38.98-1.37.98-4.03 0-2.65-.98-4.05-.98-1.39-3.03-1.39-2.08 0-3.08 1.4t-1 4.04 1 4.03q1 1.38 3.08 1.38m16.59 3.06q-2.14 0-3.29-1.21-1.14-1.21-1.14-3.34v-9.17h-1.68q-.32 0-.55-.2-.22-.21-.22-.63v-1.57l2.64-.43.83-4.48q.08-.32.31-.49.22-.18.57-.18H195v5.17h4.38v2.81H195v8.9q0 .77.38 1.2.37.43 1.03.43.37 0 .61-.09.25-.08.44-.18.18-.1.32-.18.15-.09.29-.09.18 0 .29.09.11.08.24.26l1.18 1.92q-.86.72-1.98 1.09t-2.32.37m13.7-16.93q1.82 0 3.32.59 1.49.59 2.56 1.68 1.06 1.09 1.64 2.66.57 1.56.57 3.5 0 1.95-.57 3.52-.58 1.57-1.64 2.67-1.07 1.11-2.56 1.7-1.5.59-3.32.59-1.84 0-3.35-.59-1.5-.59-2.57-1.7-1.06-1.1-1.64-2.67-.59-1.57-.59-3.52 0-1.94.59-3.5.58-1.57 1.64-2.66 1.07-1.09 2.57-1.68 1.51-.59 3.35-.59m0 13.87q2.04 0 3.03-1.38.98-1.37.98-4.03 0-2.65-.98-4.05-.99-1.39-3.03-1.39-2.08 0-3.08 1.4t-1 4.04 1 4.03q1 1.38 3.08 1.38"/></svg>