<svg xmlns="http://www.w3.org/2000/svg" width="272" height="240" viewBox="0 0 272 240"><rect width="100%" height="100%" fill="#DDDDDD"/><path fill="#999999" d="M61.845 120.145h6.9l-2.64-7.21q-.19-.48-.41-1.14-.2-.66-.42-1.43-.19.77-.4 1.43-.21.67-.4 1.16zm5.51-13.5 8.52 21.69h-3.12q-.53 0-.86-.26-.33-.27-.49-.65l-1.63-4.43h-8.98l-1.62 4.43q-.12.34-.46.63-.35.28-.88.28h-3.13l8.52-21.69zm16.71 11.7 2.62-4.42q.27-.44.74-.71.46-.27.99-.27h2.91l-3.59 5.72q-.37.6-.76.96-.39.37-.95.58.75.23 1.23.67t.87 1.12l3.6 6.34h-2.56q-.98 0-1.52-.33t-.91-.94l-2.27-4.27q-.3-.55-.77-.82t-1.1-.27h-1.4v6.63h-3.7v-15.39h3.7v6.35h1.2q.63 0 1.01-.24.39-.23.66-.71m21.72-3.49-.98 1.35q-.16.21-.32.33t-.46.12q-.28 0-.55-.18-.27-.17-.65-.39-.37-.21-.89-.39-.52-.17-1.28-.17-.98 0-1.71.35-.74.35-1.23 1.01-.48.66-.72 1.6t-.24 2.13q0 1.22.26 2.18t.76 1.62q.49.65 1.2.99.7.34 1.59.34.88 0 1.43-.22t.92-.48q.38-.26.65-.48.28-.22.63-.22.45 0 .67.34l1.07 1.36q-.62.72-1.34 1.2-.72.49-1.49.78-.77.3-1.59.41-.82.12-1.63.12-1.42 0-2.68-.53t-2.21-1.55q-.94-1.02-1.49-2.5-.55-1.47-.55-3.36 0-1.7.49-3.15.49-1.44 1.43-2.5.95-1.06 2.34-1.66 1.4-.6 3.21-.6 1.73 0 3.02.56 1.3.55 2.34 1.59m14.04-1.91h2.25v15.39h-3.71v-8.98q0-.35.04-.76t.1-.83q-.3.69-.66 1.21-.03.03-.3.41-.27.39-.7.99l-.97 1.35q-.54.76-1.09 1.54-1.31 1.84-2.96 4.17-.21.32-.55.62-.33.29-.77.29h-2.26v-15.39h3.7v8.99q0 .35-.04.76-.03.41-.09.83.33-.74.66-1.21.01-.03.28-.41.27-.37.7-.97.43-.61.97-1.36.54-.76 1.09-1.55 1.31-1.85 2.97-4.17.21-.33.56-.63.34-.29.78-.29m37.45-6.3h4.05v21.69h-27.72v-21.69h4.05v18.59h7.77v-18.59h4.05v18.59h7.8zm19.31 6.3h2.97l-8.39 19.62q-.16.39-.43.59-.26.2-.8.2h-2.76l2.88-6.18-6.22-14.23h3.25q.44 0 .68.21.25.21.37.48l3.27 7.98q.17.41.28.81.11.41.22.83l.26-.84q.14-.41.31-.81l3.08-7.97q.13-.3.4-.5.28-.19.63-.19m19.58-.03h3.07v15.42h-3.35v-8.58q0-.53.05-1.18.06-.66.17-1.23l-4.52 8.3q-.34.65-1.06.65h-.39q-.72 0-1.05-.65l-4.58-8.35q.1.57.17 1.25.06.67.06 1.21v8.58h-3.34v-15.42h3.06q.39 0 .77.17.39.16.64.66l3.63 6.47q.24.45.45.96.21.5.39 1.01.18-.51.38-1.02t.44-.95l3.61-6.47q.26-.51.64-.67.37-.16.76-.16m13.53-.21q1.71 0 3.12.56 1.4.55 2.4 1.57.99 1.02 1.53 2.49.55 1.47.55 3.29 0 1.83-.55 3.3-.54 1.46-1.53 2.5-1 1.03-2.4 1.59-1.41.55-3.12.55-1.72 0-3.13-.55-1.41-.56-2.41-1.59-1-1.04-1.54-2.5-.55-1.47-.55-3.3 0-1.82.55-3.29.54-1.47 1.54-2.49t2.41-1.57q1.41-.56 3.13-.56m0 13q1.93 0 2.85-1.29t.92-3.77q0-2.5-.92-3.8t-2.85-1.3q-1.95 0-2.88 1.31-.94 1.31-.94 3.79 0 2.47.94 3.77.93 1.29 2.88 1.29"/></svg>